<?xml version="1.0" standalone="no"?>
<!DOCTYPE svg PUBLIC "-//W3C//DTD SVG 20010904//EN" "http://www.w3.org/TR/2001/REC-SVG-20010904/DTD/svg10.dtd">
<svg version="1.0" xmlns="http://www.w3.org/2000/svg" width="50" height="50" viewBox="0 0 910.000000 512.000000"
  preserveAspectRatio="xMidYMid meet">

  <g transform="translate(0.000000,512.000000) scale(0.100000,-0.100000)" fill="#FFB229" stroke="none">
    <path d="M4620 4715 c-205 -58 -291 -256 -195 -450 35 -69 48 -82 246 -247
154 -128 219 -191 207 -203 -2 -3 -412 0 -910 6 -631 7 -919 7 -946 0 -67 -18
-117 -63 -153 -137 -29 -59 -34 -78 -34 -144 1 -59 6 -87 27 -131 35 -76 88
-133 156 -166 l57 -28 375 -7 c206 -4 400 -10 430 -13 l55 -7 -40 -35 c-22
-19 -285 -225 -585 -456 -1062 -822 -1175 -910 -1197 -936 -32 -37 -53 -114
-53 -190 0 -117 61 -209 170 -260 46 -22 69 -26 140 -26 71 1 93 5 135 26 41
21 406 297 955 721 50 39 77 54 81 45 4 -6 21 -82 39 -167 153 -738 543 -1229
1130 -1424 370 -123 845 -125 1187 -5 465 163 879 585 1053 1074 59 166 81
284 87 466 18 518 -125 957 -402 1232 -101 100 -616 529 -1428 1187 -152 124
-301 238 -330 253 -67 36 -174 45 -257 22z m962 -1519 c104 -26 230 -81 319
-138 249 -160 431 -441 479 -741 19 -119 8 -329 -24 -446 -103 -371 -393 -656
-773 -758 -86 -23 -118 -26 -263 -27 -143 -1 -177 2 -255 23 -316 83 -565 282
-705 566 -150 302 -154 641 -10 942 149 314 444 536 792 598 122 21 316 13
440 -19z" />
    <path d="M5205 2802 c-252 -64 -446 -255 -511 -502 -22 -85 -22 -244 0 -330
48 -189 188 -366 356 -448 117 -58 194 -76 315 -75 270 1 493 142 616 388 53
107 72 203 66 330 -13 284 -199 529 -468 620 -111 36 -269 44 -374 17z" />
  </g>
</svg>