<?xml version="1.0"?>
<svg xmlns="http://www.w3.org/2000/svg" id="_x31_px" enable-background="new 0 0 24 24" height="50"
  viewBox="0 0 24 24" width="50" class="">
  <g>
    <path
      d="m19.5 24h-15c-1.378 0-2.5-1.122-2.5-2.5v-19c0-1.378 1.122-2.5 2.5-2.5h15c1.378 0 2.5 1.122 2.5 2.5v19c0 1.378-1.122 2.5-2.5 2.5zm-15-23c-.827 0-1.5.673-1.5 1.5v19c0 .827.673 1.5 1.5 1.5h15c.827 0 1.5-.673 1.5-1.5v-19c0-.827-.673-1.5-1.5-1.5z"
      data-original="#000000" class="active-path" data-old_color="#000000" fill="#FFB229" />
    <path
      d="m8.5 16c-.162 0-.32-.078-.417-.223l-2-3c-.112-.168-.112-.387 0-.555l2-3c.152-.23.462-.292.693-.139.23.153.292.463.139.693l-1.814 2.724 1.815 2.723c.153.23.091.54-.139.693-.085.057-.181.084-.277.084z"
      data-original="#000000" class="active-path" data-old_color="#000000" fill="#FFB229" />
    <path
      d="m15.5 16c-.095 0-.191-.027-.277-.084-.23-.153-.292-.463-.139-.693l1.815-2.723-1.815-2.723c-.153-.23-.091-.54.139-.693s.54-.092.693.139l2 3c.112.168.112.387 0 .555l-2 3c-.096.144-.255.222-.416.222z"
      data-original="#000000" class="active-path" data-old_color="#000000" fill="#FFB229" />
    <path
      d="m10.5 17c-.059 0-.118-.01-.176-.032-.258-.097-.389-.385-.292-.644l3-8c.097-.259.385-.388.644-.292.258.097.389.385.292.644l-3 8c-.075.2-.266.324-.468.324z"
      data-original="#000000" class="active-path" data-old_color="#000000" fill="#FFB229" />
  </g>
</svg>