<?xml version="1.0" standalone="no"?>
<!DOCTYPE svg PUBLIC "-//W3C//DTD SVG 20010904//EN" "http://www.w3.org/TR/2001/REC-SVG-20010904/DTD/svg10.dtd">
<svg version="1.0" xmlns="http://www.w3.org/2000/svg" width="50" height="50" viewBox="0 0 500.000000 500.000000"
  preserveAspectRatio="xMidYMid meet">

  <g transform="translate(0.000000,500.000000) scale(0.100000,-0.100000)" fill="#FFB229" stroke="none">
    <path d="M3190 4496 c-454 -111 -835 -208 -846 -214 -23 -12 -34 -37 -142
-307 l-68 -170 -285 -5 c-232 -4 -289 -8 -306 -20 -46 -33 -1233 -1331 -1239
-1355 -10 -39 4 -75 40 -109 18 -17 307 -292 641 -611 334 -319 614 -584 623
-590 10 -6 146 -12 321 -15 l305 -5 68 -170 c118 -295 118 -295 152 -311 53
-24 1796 -318 1824 -308 14 5 34 20 44 35 23 31 382 1660 374 1700 -3 14 -58
113 -123 219 -65 106 -117 198 -115 204 2 6 57 124 123 262 65 139 119 260
119 271 0 19 -535 1563 -567 1636 -18 41 -57 68 -95 66 -13 0 -394 -92 -848
-203z m808 -73 c10 -32 126 -364 257 -737 l237 -679 -66 -141 c-37 -78 -70
-147 -75 -154 -5 -8 -75 208 -181 550 -95 310 -178 574 -186 589 -13 26 -52
49 -84 49 -61 0 -56 7 -436 -752 -200 -400 -364 -739 -364 -752 0 -25 27 -68
528 -832 301 -459 320 -484 373 -484 33 0 76 27 87 57 6 15 66 269 133 563 66
294 122 537 124 538 4 4 8 -3 89 -135 31 -50 56 -97 56 -105 0 -23 -318 -1469
-324 -1475 -3 -4 -117 13 -253 36 -934 160 -1336 231 -1340 234 -5 5 -112 271
-110 274 1 0 265 -48 587 -108 419 -78 593 -107 614 -102 38 11 70 55 70 96 0
27 -82 155 -433 679 -285 425 -441 649 -457 657 -37 16 -1653 16 -1689 -1 -47
-21 -68 -89 -42 -134 8 -14 812 -752 926 -850 2 -2 -74 -4 -170 -3 l-174 0
-572 547 c-315 301 -573 551 -574 556 -1 4 245 275 547 602 l548 594 165 0
165 0 -31 -32 c-149 -160 -823 -909 -831 -925 -25 -46 -3 -110 43 -131 38 -17
1653 -17 1691 0 21 10 89 138 390 740 200 400 364 737 364 748 0 50 -49 100
-97 100 -10 0 -268 -58 -573 -129 -305 -70 -556 -125 -558 -122 -1 4 21 65 50
136 l53 130 740 181 c407 100 745 182 752 183 6 1 20 -25 31 -56z m-688 -578
c0 -3 -128 -262 -285 -575 l-285 -570 -656 0 -656 0 39 43 c21 24 206 229 412
455 l373 411 92 21 c50 11 280 65 511 119 415 97 455 106 455 96z m726 -826
c86 -277 156 -513 156 -524 0 -20 -231 -1047 -237 -1053 -6 -7 -635 952 -635
968 0 13 553 1120 558 1116 1 -2 73 -230 158 -507z m-957 -1415 c183 -272 330
-498 327 -501 -3 -3 -238 38 -523 91 -285 53 -521 96 -525 96 -4 0 -208 182
-453 405 l-446 405 644 0 643 0 333 -496z" />
  </g>
</svg>